<?xml version="1.0" encoding="utf-8"?>
<!-- Generator: Adobe Illustrator 27.5.0, SVG Export Plug-In . SVG Version: 6.00 Build 0)  -->
<svg version="1.1" xmlns="http://www.w3.org/2000/svg" xmlns:xlink="http://www.w3.org/1999/xlink" x="0px" y="0px"
	 viewBox="250 300 220 50" style="enable-background:new 0 0 500 500;" xml:space="preserve">

	<g>
		<path style="fill:#6E6039;" d="M467.986,330.233c-3.259-0.735-5.766-2.053-8.165-4.379c-1.813-1.758-3.879-3.32-6.273-4.201
			c-3.512-1.294-8.651-1.108-12.306,0.614c0.389-0.61,0.733-1.262,1.036-1.949c0.935-0.074,1.871-0.079,2.809-0.296
			c1.114-0.259,2.208-0.609,3.273-1.026c2.059-0.806,4.001-1.881,5.747-3.24c1.94-1.511,3.272-3.207,4.335-5.412
			c1.018-2.112,1.572-4.411,2.647-6.487c0.253-0.489-0.214-0.976-0.714-0.757c-1.899,0.835-3.681,2.13-5.571,3.061
			c-1.911,0.941-3.817,1.925-5.539,3.188c-2.629,1.928-4.592,4.714-6.264,7.578c-0.069-0.049-0.149-0.081-0.233-0.097
			c0.577-1.752,1.005-3.552,1.242-5.385c0.43-3.332-0.077-6.545-0.049-9.866c0.004-0.469-0.608-0.737-0.971-0.475
			c-2.77,2.002-4.67,6.738-5.439,9.941c-0.838,3.491,0.08,7.229,2.386,9.948c-1.415,1.905-3.171,3.418-5.174,4.607
			c0.256-1.291,0.189-2.703-0.055-3.827c-0.752-3.456-2.632-5.891-4.828-8.529l-0.001,0c-0.121-0.207-0.521-0.115-0.482,0.153
			c0.097,0.669,0.329,1.082,0.679,1.57c0.422,1.732,0.105,3.982-0.298,5.425c-0.447,1.6-1.322,3.1-1.295,4.815
			c0.018,1.118,0.459,2.021,1.171,2.636c-6.322,2.018-13.791,2.133-20.181,1.97c1.313-0.822,2.51-1.852,3.345-2.663
			c1.194-1.16,3.387-3.953,1.698-5.618c-1.53-1.508-3.761,0.166-4.887,1.256c-1.29,1.249-2.42,2.64-3.417,4.132
			c-0.236,0.352-0.486,0.715-0.728,1.086c0.608-2.06,0.998-4.294,0.404-6.359c-0.347-1.204-1.695-3.973-3.343-3.523
			c-1.536,0.419-1.304,3.095-1.177,4.24c0.183,1.657,0.646,3.615,1.55,5.205c-0.043-0.049-0.089-0.097-0.131-0.146
			c-1.08-1.243-2.21-2.443-3.513-3.457c-1.366-1.063-4.583-2.956-6.056-1.043c-1.334,1.732,0.829,3.694,2.145,4.506
			c1.379,0.852,2.898,1.516,4.417,2.093c-4.636-0.116-9.27-0.178-13.909-0.203c1.009-1.215,1.428-2.871,1.194-4.645
			c-0.246-1.863-1.473-3.834-3.2-4.603c0.916-0.12,1.841-0.198,2.762-0.269c0.036,0.118,0.083,0.234,0.145,0.348
			c0.386,0.711,1.189,1.155,1.998,1.005c1.333-0.247,2.145-1.392,1.675-2.716c-0.482-1.358-2.077-1.419-3.113-0.653
			c-0.489,0.362-0.766,0.889-0.782,1.443c-1.238-0.112-2.462-0.131-3.698,0.095c-0.037,0.007-0.077,0.014-0.116,0.021
			c1.828-1.827,3.698-3.789,4.624-6.208c1.615,0.848,3.186-0.447,3.532-2.064c0.256-1.198-0.318-2.353-1.483-2.779
			c-0.986-0.36-2.148-0.103-2.806,0.737c-0.92,1.174-0.917,2.652,0.076,3.614c-0.945,1.771-2.13,3.292-3.454,4.677
			c0.088-0.611,0.103-1.236,0.127-1.751c0.064-1.375,0.303-3.21-0.51-4.423c0.271-0.132,0.51-0.328,0.687-0.589
			c0.755-1.112,0.514-2.482-0.746-3.074c-1.293-0.607-2.448,0.474-2.63,1.739c-0.133,0.927,0.364,1.778,1.275,2.042
			c0.262,0.076,0.535,0.092,0.8,0.06c0.176,1.374,0.322,2.622,0.262,4.022c-0.051,1.209-0.413,2.234-0.655,3.343
			c-1.659,1.544-3.457,2.957-5.227,4.421c0.435-1.445,0.673-2.923,0.711-4.104c0.104-3.183-2.025-4.788-5.047-4.584
			c-2.478,0.167-5.863,1.456-6.844,3.955c-0.729,1.857,0.279,4.573,1.652,6.782c-0.739-0.568-1.506-1.097-2.204-1.607
			c-1.449-1.058-2.939-1.941-4.784-1.971c-3.481-0.057-5.282,3.185-5.495,6.296c-0.032,0.464-0.04,0.941-0.026,1.419
			c-0.285,0-0.571-0.001-0.856-0.001c-5.71,0.012-11.409,0.079-17.111,0.223c1.52-0.577,3.04-1.242,4.421-2.094
			c1.315-0.812,3.479-2.775,2.145-4.506c-1.474-1.913-4.69-0.02-6.056,1.043c-1.303,1.014-2.433,2.214-3.513,3.457
			c-0.042,0.049-0.088,0.097-0.131,0.146c0.904-1.591,1.367-3.548,1.55-5.205c0.126-1.145,0.358-3.82-1.177-4.24
			c-1.647-0.45-2.996,2.319-3.342,3.523c-0.594,2.066-0.204,4.299,0.404,6.359c-0.242-0.372-0.492-0.734-0.728-1.086
			c-0.997-1.491-2.127-2.883-3.417-4.132c-1.126-1.09-3.358-2.764-4.888-1.256c-1.689,1.665,0.503,4.458,1.698,5.618
			c0.835,0.81,2.032,1.841,3.345,2.663c-6.39,0.163-13.859,0.049-20.181-1.97c0.712-0.616,1.153-1.519,1.171-2.636
			c0.027-1.715-0.848-3.215-1.295-4.815c-0.403-1.443-0.72-3.694-0.298-5.425c0.35-0.488,0.582-0.901,0.679-1.57
			c0.039-0.268-0.36-0.361-0.482-0.153l-0.001,0c-2.195,2.639-4.076,5.073-4.828,8.529c-0.244,1.124-0.311,2.536-0.055,3.827
			c-2.003-1.188-3.76-2.702-5.174-4.607c2.306-2.719,3.223-6.456,2.386-9.948c-0.769-3.203-2.668-7.939-5.439-9.941
			c-0.363-0.262-0.975,0.006-0.971,0.475c0.028,3.321-0.479,6.533-0.049,9.866c0.236,1.833,0.665,3.633,1.242,5.385
			c-0.084,0.017-0.164,0.049-0.233,0.097c-1.673-2.864-3.635-5.65-6.264-7.578c-1.722-1.263-3.628-2.246-5.539-3.188
			c-1.89-0.931-3.672-2.226-5.571-3.061c-0.5-0.22-0.967,0.268-0.714,0.757c1.075,2.075,1.629,4.374,2.647,6.487
			c1.063,2.205,2.395,3.902,4.335,5.412c1.746,1.359,3.688,2.434,5.747,3.24c1.064,0.417,2.159,0.767,3.273,1.026
			c0.938,0.218,1.874,0.223,2.809,0.296c0.304,0.687,0.647,1.339,1.036,1.949c-3.655-1.722-8.794-1.907-12.306-0.614
			c-2.394,0.882-4.46,2.444-6.273,4.201c-2.399,2.326-4.907,3.644-8.165,4.379c-0.747,0.168-0.647,1.208,0.085,1.309
			c5.873,0.806,11.564,1.495,17.36-0.212c3.751-1.105,8.968-3.401,10.647-7.274c1.23,1.396,2.712,2.546,4.363,3.501
			c-5.972,0.695-11.393,6.11-13.074,11.698c-0.128,0.426,0.294,0.899,0.735,0.681c3.619-1.791,7.336-3.074,10.431-5.761
			c1.402-1.217,3.832-3.388,4.045-5.531c5.378,2.4,12.04,3.133,17.917,3.302c-0.103,0.061-0.205,0.114-0.309,0.178
			c-1.301,0.806-3.777,3.085-2.384,4.775c1.251,1.518,4.148,0.207,5.496-0.404c1.463-0.663,3.747-1.751,5.383-3.153
			c-1.757,3.649-3.651,9.919-0.28,10.535c1.864,0.34,2.805-2.076,3.198-3.44c0.603-2.096,0.937-5.015,0.436-7.431
			c1.242,2.582,3.393,5.256,5.989,6.186c1.534,0.55,4.196,0.047,3.872-2.075c-0.286-1.876-2.187-3.479-3.587-4.554
			c-0.393-0.302-0.806-0.585-1.232-0.845c4.485-0.112,8.971-0.213,13.464-0.222c1.304-0.003,2.609-0.003,3.913-0.004
			c0.459,1.784,1.51,3.276,3.608,3.689c0.86,0.17,1.898,0.137,2.966-0.059c-1.333,1.101-2.66,2.196-4.046,3.197
			c-1.134,0.021-2.211,0.177-3.406-0.008c-1.385-0.214-2.581-0.6-3.894-1.04c0.083-0.254,0.121-0.525,0.097-0.796
			c-0.082-0.945-0.821-1.598-1.756-1.648c-1.276-0.068-2.562,0.855-2.218,2.242c0.336,1.352,1.633,1.855,2.87,1.33
			c0.29-0.123,0.529-0.319,0.711-0.559c1.033,1.034,2.879,1.155,4.24,1.361c0.51,0.077,1.125,0.184,1.742,0.216
			c-1.616,1.028-3.339,1.896-5.26,2.478c-0.751-1.161-2.2-1.452-3.531-0.778c-0.952,0.482-1.431,1.572-1.269,2.609
			c0.191,1.226,1.213,2.014,2.437,1.996c1.653-0.025,3.228-1.314,2.711-3.063c2.553-0.437,4.841-1.891,6.989-3.328
			c-0.015,0.037-0.03,0.075-0.044,0.11c-0.462,1.169-0.681,2.372-0.813,3.609c-0.547-0.092-1.118,0.077-1.568,0.486
			c-0.954,0.868-1.204,2.444,0.035,3.181c1.207,0.718,2.488,0.145,2.99-1.115c0.304-0.764,0.025-1.639-0.597-2.156
			c-0.1-0.083-0.205-0.151-0.314-0.21c0.281-1.002,0.562-2.01,0.909-2.99c0.217-0.615,0.473-1.221,0.83-1.769
			c0.06-0.093,0.126-0.18,0.191-0.266c0.936-0.695,1.812-1.448,2.709-2.209c0.319-0.271,0.653-0.533,0.982-0.798
			c-2.612,4.138-3.609,9.192,1.993,10.907c2.707,0.829,6.078,0.62,7.443-2.187c0.607-1.249,0.884-2.914,0.874-4.621
			c0.748,1.244,1.688,2.321,2.875,3c2.664,1.525,5.547,0.301,7.499-1.791c1.897-2.034,3.009-5.4,1.072-7.762
			c-0.428-0.521-0.943-0.929-1.509-1.256c0.675,0.001,1.351,0.001,2.026,0.002c4.493,0.009,8.978,0.11,13.464,0.222
			c-0.427,0.261-0.84,0.544-1.232,0.845c-1.4,1.075-3.301,2.678-3.587,4.554c-0.323,2.122,2.339,2.625,3.872,2.075
			c2.596-0.931,4.747-3.605,5.989-6.186c-0.501,2.416-0.167,5.336,0.436,7.431c0.392,1.364,1.334,3.78,3.198,3.44
			c3.371-0.616,1.476-6.886-0.28-10.535c1.635,1.402,3.92,2.49,5.383,3.153c1.348,0.611,4.245,1.922,5.496,0.404
			c1.392-1.69-1.083-3.969-2.384-4.775c-0.104-0.064-0.206-0.117-0.309-0.178c5.877-0.169,12.539-0.902,17.917-3.302
			c0.213,2.144,2.643,4.314,4.045,5.531c3.095,2.687,6.812,3.97,10.431,5.761c0.441,0.218,0.863-0.255,0.735-0.681
			c-1.682-5.588-7.102-11.003-13.074-11.698c1.652-0.954,3.134-2.105,4.363-3.501c1.679,3.874,6.896,6.17,10.647,7.274
			c5.796,1.707,11.486,1.018,17.36,0.212C468.633,331.442,468.732,330.402,467.986,330.233z M388.071,318.32
			c0.549-0.297,1.288-0.216,1.532,0.421c0.296,0.772-0.184,1.413-0.965,1.537c-0.536,0.085-0.927-0.232-1.112-0.724
			C387.342,319.063,387.632,318.558,388.071,318.32z M387.412,309.71c0.478-0.578,1.172-0.607,1.814-0.266
			c0.639,0.34,0.8,1.128,0.564,1.776c-0.296,0.81-1.137,1.402-1.972,0.965C386.805,311.654,386.716,310.552,387.412,309.71z
			 M284.048,330.393c-4.048,0.962-8.415,0.989-12.58,0.367c1.237-0.454,2.422-1.051,3.497-1.805
			c2.149-1.507,3.802-3.533,6.105-4.854c2.704-1.551,5.493-1.937,8.565-1.719c1.934,0.137,3.817,1.1,5.71,1.378
			C292.902,327.405,288.148,329.418,284.048,330.393z M293.576,303.06c1.789,2.136,3.068,5.437,3.735,7.873
			c0.831,3.036,0.156,6.036-1.323,8.675c-0.069-0.111-0.177-0.205-0.331-0.258c-0.019-0.007-0.039-0.011-0.058-0.017
			C293.721,314.231,293.276,308.485,293.576,303.06z M289.456,318.124c-2.483-0.832-4.856-2.091-6.869-3.773
			c-1.795-1.5-2.88-3.253-3.867-5.342c-0.537-1.136-0.927-2.357-1.406-3.53c0.114,0.095,0.23,0.187,0.353,0.269
			c0.798,0.536,1.728,0.903,2.599,1.309c1.9,0.887,3.81,1.786,5.563,2.946c3.362,2.224,5.235,5.689,7.672,8.739
			c0.013,0.043,0.026,0.087,0.04,0.129C292.183,318.67,290.788,318.571,289.456,318.124z M297.08,334.048
			c-2.304,1.808-5.02,2.941-7.644,4.211c1.193-2.387,2.819-4.706,4.83-6.387c2.237-1.87,4.577-2.649,7.244-3.115
			C300.511,330.917,299.112,332.454,297.08,334.048z M330.179,330.964c-0.148-0.666,0.424-1.142,1.046-1.196
			c0.497-0.044,1.018,0.218,1.135,0.729c0.117,0.513-0.034,0.993-0.528,1.217C331.112,332.042,330.359,331.772,330.179,330.964z
			 M335.68,326.937c0.752-0.777,1.545-1.513,2.44-2.125c0.512-0.35,3.514-2.245,4.052-0.832c0.348,0.915-1.253,2.087-1.808,2.438
			c-0.943,0.596-2.002,0.94-3.037,1.342c-1.003,0.39-2.228,0.658-3.375,1.034C334.513,328.153,335.102,327.534,335.68,326.937z
			 M331.439,322.252c0.121-0.446,0.843-2.616,1.503-2.717c2.367-0.361-0.471,7.2-1.3,9.407c-0.024-0.002-0.047-0.008-0.071-0.01
			c-0.117-1.328-0.324-2.649-0.376-3.981C331.159,324.037,331.197,323.142,331.439,322.252z M323.076,322.042
			c1.589-0.552,3.902,2.809,4.625,3.73c0.899,1.145,1.586,2.377,2.273,3.618c-0.08,0.06-0.154,0.127-0.224,0.197
			c-1.211-0.554-2.376-1.215-3.427-2.027C325.581,326.989,320.839,322.82,323.076,322.042z M303.435,319.607
			c0.654-1.683,1.501-2.808,2.557-4.217c-0.306,1.489-0.475,2.933-0.283,4.591c0.164,1.414,0.794,2.612,1.06,3.978
			c0.363,1.861-0.113,2.828-1.1,3.522c-1.075-0.389-2.113-0.835-3.099-1.353C302.045,324.008,302.701,321.495,303.435,319.607z
			 M320.592,336.105c-2.167-0.162-0.403-2.135,0.619-2.771c0.726-0.452,1.554-0.77,2.357-1.057c0.331-0.119,0.663-0.21,0.994-0.288
			c0.799-0.003,1.573-0.012,2.313-0.025c0.313-0.006,0.626-0.013,0.94-0.02c-0.567,0.542-1.134,1.083-1.751,1.487
			C324.779,334.272,322.196,336.225,320.592,336.105z M328.604,342.545c-0.671-0.716-0.003-3.295,0.194-4.189
			c0.435-1.973,1.267-3.822,1.993-5.703c0.015,0.003,0.029,0.011,0.044,0.014c0.281,1.415,0.515,2.791,0.508,4.29
			C331.34,337.482,330.745,344.831,328.604,342.545z M334.75,332.173c0.645,0.228,1.262,0.517,1.842,0.878
			c1.229,0.764,2.392,1.689,3.434,2.689c0.39,0.374,1.234,1.041,1.165,1.677c-0.164,1.518-2.631,0.524-3.371,0.003
			c-2.061-1.451-3.222-3.683-4.774-5.592c0.09-0.002,0.18-0.005,0.269-0.007C333.797,331.922,334.286,332.009,334.75,332.173z
			 M348.712,337.613c-0.72,0.328-1.474,0.057-1.653-0.75c-0.148-0.666,0.424-1.142,1.046-1.196c0.497-0.044,1.018,0.218,1.135,0.729
			C349.357,336.909,349.206,337.388,348.712,337.613z M348.508,344.672c-0.681,0.107-1.424-0.205-1.633-0.898
			c-0.21-0.696-0.046-1.371,0.614-1.727c0.961-0.519,2.026-0.217,2.349,0.879C350.104,343.829,349.36,344.539,348.508,344.672z
			 M357.618,345.305c-0.273,0.742-0.995,1.088-1.696,0.648c-0.578-0.363-0.513-1.105-0.115-1.585
			c0.319-0.384,0.871-0.571,1.316-0.295C357.571,344.351,357.805,344.796,357.618,345.305z M446.944,338.259
			c-2.624-1.27-5.34-2.403-7.644-4.211c-2.032-1.594-3.432-3.131-4.43-5.291c2.667,0.465,5.007,1.245,7.244,3.115
			C444.125,333.553,445.751,335.871,446.944,338.259z M429.611,323.96c0.266-1.366,0.896-2.565,1.06-3.978
			c0.192-1.658,0.023-3.103-0.283-4.591c1.056,1.409,1.903,2.534,2.557,4.217c0.734,1.888,1.389,4.401,0.865,6.522
			c-0.986,0.519-2.024,0.964-3.099,1.353C429.724,326.788,429.249,325.821,429.611,323.96z M404.019,330.497
			c0.117-0.511,0.638-0.772,1.135-0.729c0.622,0.054,1.194,0.53,1.046,1.196c-0.18,0.807-0.933,1.078-1.653,0.75
			C404.053,331.489,403.902,331.01,404.019,330.497z M413.304,322.042c2.236,0.777-2.506,4.947-3.247,5.519
			c-1.051,0.811-2.216,1.472-3.427,2.027c-0.069-0.071-0.143-0.137-0.223-0.197c0.686-1.242,1.374-2.473,2.273-3.618
			C409.402,324.851,411.715,321.49,413.304,322.042z M403.437,319.535c0.661,0.101,1.382,2.271,1.504,2.717
			c0.242,0.889,0.28,1.785,0.244,2.699c-0.052,1.332-0.259,2.653-0.376,3.981c-0.024,0.001-0.047,0.007-0.072,0.01
			C403.908,326.736,401.07,319.174,403.437,319.535z M396.017,326.417c-0.555-0.351-2.155-1.523-1.808-2.438
			c0.537-1.414,3.54,0.481,4.052,0.832c0.894,0.612,1.688,1.348,2.44,2.125c0.578,0.597,1.166,1.216,1.728,1.857
			c-1.147-0.376-2.372-0.644-3.375-1.034C398.019,327.357,396.959,327.013,396.017,326.417z M385.79,324.826
			c0.171,1.35-0.008,2.81-0.889,3.898c-0.81,1.001-2.162,1.6-3.431,1.608c-2.159,0.015-4.339-0.213-6.488-0.363
			c-0.059-0.004-0.154-0.002-0.257-0.003c-0.028-0.437-0.133-0.867-0.32-1.266c0.756-1.238,1.749-2.314,2.712-3.392
			c0.897-1.004,1.648-2.14,2.754-2.95c0.848-0.621,1.96-1.097,3.03-1.026C384.623,321.448,385.596,323.297,385.79,324.826z
			 M369.678,332.335c-1.269-0.798-1.127-2.427-0.252-3.482c0.7-0.844,1.914-1.254,2.892-0.647c0.982,0.609,1.498,1.587,1.086,2.706
			C372.803,332.542,371.217,333.302,369.678,332.335z M373.923,327.949c-0.023-0.028-0.042-0.058-0.065-0.086
			c0.052-0.043,0.105-0.083,0.155-0.128C373.98,327.805,373.954,327.878,373.923,327.949z M381.529,310.328
			c-0.478-0.214-0.633-0.776-0.494-1.255c0.174-0.599,0.752-1.068,1.377-0.794c0.757,0.333,0.875,1.125,0.414,1.767
			C382.509,310.487,382.009,310.542,381.529,310.328z M367.036,321.607c-1.35-3.394,1.523-5.297,4.479-5.909
			c1.488-0.308,3.166-0.361,4.085,1.132c0.76,1.235,0.506,2.996,0.195,4.309c-0.551,2.325-1.548,4.051-2.697,6.061
			c-0.998-0.646-2.188-0.678-3.215-0.168C369.1,325.178,367.787,323.495,367.036,321.607z M359.238,333.958
			c-3.091-0.377-3.711-4.263-3.315-6.841c0.559-3.644,3.653-5.416,6.952-3.41c1.81,1.101,4.299,2.889,5.525,4.639
			c-0.023,0.033-0.051,0.063-0.073,0.097c-0.624-0.455-1.237-1.232-2.073-1.191c-0.142,0.007-0.227,0.198-0.165,0.315
			c0.366,0.691,1.273,1.037,1.96,1.349c-0.099,0.194-0.188,0.392-0.256,0.594c-2.225-0.872-4.713-2.131-7.138-1.44
			c-0.164,0.047-0.171,0.242-0.025,0.316c1.076,0.546,2.354,0.426,3.516,0.69c1.191,0.269,2.297,0.788,3.479,1.085
			c-0.006,0.037-0.006,0.074-0.011,0.111c-0.025,0.012-0.051,0.016-0.075,0.034c-0.176,0.131-0.356,0.276-0.536,0.427
			c-0.075,0.027-0.147,0.069-0.2,0.144c-0.02,0.029-0.046,0.056-0.067,0.084c-0.368,0.323-0.741,0.684-1.111,1.074
			C363.851,333.362,361.091,334.184,359.238,333.958z M371.68,341.896c-0.565,3.4-3.971,3.695-6.719,2.587
			c-6.052-2.44,0.073-9.461,2.759-12.834c0.204,0.671,0.643,1.279,1.383,1.719c0.066,0.039,0.133,0.07,0.2,0.105
			c-0.431,0.702-0.724,1.453-0.947,2.259c-0.241,0.868-0.728,1.868-0.719,2.77c0.002,0.158,0.168,0.233,0.292,0.14
			c0.66-0.494,0.812-1.427,1.017-2.184c0.253-0.934,0.482-1.873,0.932-2.729c0.32,0.112,0.638,0.172,0.951,0.193
			C371.239,336.565,372.133,339.171,371.68,341.896z M382.566,339.916c-2.573,2.744-5.865,1.967-7.793-1.031
			c-1.047-1.629-1.507-3.532-2.377-5.244c0.277-0.122,0.54-0.279,0.784-0.472c0.004,0.004,0.004,0.008,0.008,0.012
			c0.411,0.424,0.755,0.896,1.085,1.384c0.304,0.45,0.554,0.796,1.043,1.054c0.125,0.066,0.29-0.037,0.253-0.185
			c-0.26-1.036-1.145-1.984-1.921-2.691c-0.002-0.002-0.005-0.002-0.007-0.005c0.068-0.074,0.139-0.142,0.203-0.223
			c1.191,0.508,2.335,1.118,3.418,1.828c0.97,0.635,1.854,1.587,2.926,2.028c0.115,0.047,0.264-0.064,0.208-0.192
			c-0.943-2.158-3.891-3.612-6.095-4.37c0.078-0.148,0.151-0.301,0.216-0.462c0.043-0.109,0.069-0.22,0.099-0.331
			c0.006,0.001,0.01,0.004,0.016,0.006c2.45,0.53,4.98,0.528,7.3,1.612C385.11,334.121,384.743,337.595,382.566,339.916z
			 M382.719,331.141c0.045-0.01,0.09-0.022,0.136-0.032c-0.031,0.017-0.061,0.036-0.093,0.053
			C382.747,331.156,382.733,331.147,382.719,331.141z M398.56,337.42c-0.74,0.521-3.207,1.515-3.371-0.003
			c-0.069-0.636,0.776-1.303,1.165-1.677c1.042-1.001,2.204-1.925,3.434-2.689c0.58-0.361,1.198-0.649,1.842-0.878
			c0.464-0.164,0.953-0.251,1.435-0.352c0.09,0.002,0.18,0.005,0.269,0.007C401.782,333.737,400.621,335.97,398.56,337.42z
			 M407.581,338.355c0.197,0.895,0.865,3.473,0.194,4.189c-2.141,2.286-2.736-5.062-2.738-5.589
			c-0.007-1.499,0.227-2.875,0.508-4.29c0.015-0.003,0.029-0.01,0.044-0.014C406.314,334.533,407.147,336.382,407.581,338.355z
			 M412.812,332.277c0.802,0.288,1.631,0.605,2.357,1.057c1.022,0.636,2.786,2.609,0.619,2.771c-1.604,0.12-4.187-1.833-5.472-2.674
			c-0.617-0.404-1.184-0.945-1.751-1.487c0.313,0.006,0.626,0.014,0.94,0.02c0.739,0.013,1.513,0.022,2.313,0.025
			C412.149,332.067,412.481,332.158,412.812,332.277z M450.55,310.004c1.753-1.16,3.663-2.059,5.563-2.946
			c0.871-0.406,1.801-0.773,2.599-1.309c0.123-0.082,0.239-0.174,0.353-0.269c-0.478,1.173-0.869,2.393-1.406,3.53
			c-0.987,2.09-2.072,3.843-3.867,5.342c-2.013,1.681-4.386,2.94-6.869,3.773c-1.332,0.446-2.727,0.546-4.085,0.748
			c0.014-0.043,0.026-0.086,0.04-0.129C445.315,315.693,447.188,312.228,450.55,310.004z M439.069,310.933
			c0.667-2.437,1.946-5.738,3.735-7.873c0.3,5.425-0.144,11.172-2.022,16.273c-0.019,0.007-0.039,0.01-0.058,0.017
			c-0.154,0.053-0.262,0.147-0.331,0.258C438.913,316.969,438.238,313.969,439.069,310.933z M452.332,330.393
			c-4.1-0.974-8.854-2.987-11.297-6.633c1.893-0.278,3.776-1.241,5.71-1.378c3.072-0.218,5.861,0.169,8.565,1.719
			c2.303,1.321,3.956,3.347,6.105,4.854c1.075,0.754,2.26,1.351,3.497,1.805C460.747,331.381,456.38,331.355,452.332,330.393z"/>
		<path style="fill:#6E6039;" d="M371.794,326.44c0.076-0.972-0.061-1.918-0.274-2.867c-0.208-0.926-0.353-1.92-0.673-2.812
			c-0.046-0.129-0.218-0.067-0.24,0.041c-0.363,1.815,0.88,3.744,0.816,5.601C371.415,326.64,371.775,326.681,371.794,326.44z"/>
		<path style="fill:#6E6039;" d="M372.599,326.51c0.227-0.794,0.523-1.562,0.86-2.315c0.263-0.589,0.676-1.189,0.743-1.838
			c0.011-0.109-0.122-0.232-0.223-0.141c-0.531,0.483-0.753,1.259-1.004,1.915c-0.289,0.757-0.537,1.527-0.721,2.317
			C372.202,326.672,372.538,326.723,372.599,326.51z"/>
		<path style="fill:#6E6039;" d="M381.762,326.148c-2.615,0.284-4.737,1.078-7.056,2.302c-0.362,0.191-0.172,0.783,0.231,0.615
			c1.222-0.509,2.419-1.102,3.67-1.535c1.112-0.385,2.23-0.539,3.222-1.204C381.91,326.272,381.859,326.137,381.762,326.148z"/>
	</g>

</svg>
