<?xml version="1.0" encoding="utf-8"?>
<svg version="1.1" xmlns="http://www.w3.org/2000/svg" xmlns:xlink="http://www.w3.org/1999/xlink" x="0px" y="0px"
	 viewBox="33 88 214 13" xml:space="preserve">
<path style="fill:#e4ba7c;" d="M33.695,95.301c0.89,0.315,1.719,0.584,2.548,0.851c0.825,0.266,1.65,0.533,2.536,0.847
		c1.599,0.567,3.412,1.21,5.271,1.21c0.124,0,0.249-0.003,0.374-0.009c2.145-0.1,3.895-1.226,4.636-2.945h5.679
		c-1.78,0.979-3.143,2.687-3.667,4.799c-0.06,0.242,0.067,0.491,0.298,0.584c0.635,0.256,1.316,0.386,2.025,0.386
		c1.25,0,2.462-0.408,3.413-1.15c1.394-1.087,2.18-2.86,2.097-4.62h5.697c0.001,0,0.003,0,0.004,0c0.002,0,0.005,0,0.007,0h8.633
		c-0.163,0.148-0.318,0.306-0.453,0.483c-0.816,1.071-0.994,2.562-0.452,3.795c0.433,0.986,1.301,1.719,2.266,1.913
		c0.171,0.034,0.343,0.051,0.515,0.051c0.934,0,1.829-0.495,2.248-1.288c0.27-0.513,0.315-1.139,0.123-1.72
		c-0.179-0.544-0.54-0.969-1.016-1.198c-0.25-0.121-0.548-0.014-0.668,0.234c-0.12,0.249-0.015,0.548,0.234,0.667
		c0.229,0.11,0.407,0.327,0.501,0.61c0.105,0.319,0.083,0.67-0.059,0.939c-0.288,0.548-1.011,0.86-1.68,0.724
		c-0.651-0.131-1.244-0.642-1.547-1.333c-0.392-0.893-0.258-2.013,0.332-2.789c0.591-0.776,1.637-1.201,2.599-1.062
		c0.084,0.013,0.162-0.001,0.236-0.026h22.503c0.001,0,0.003,0,0.004,0c0.002,0,0.005,0,0.007,0h4.712
		c-1.78,0.979-3.143,2.687-3.668,4.799c-0.06,0.242,0.067,0.491,0.298,0.584c0.635,0.256,1.317,0.386,2.025,0.386c0,0,0,0,0.001,0
		c1.25,0,2.462-0.408,3.413-1.15c1.394-1.087,2.18-2.86,2.097-4.62h16.499c-1.78,0.979-3.143,2.687-3.667,4.799
		c-0.06,0.242,0.067,0.491,0.298,0.584c0.635,0.256,1.316,0.386,2.025,0.386c1.25,0,2.462-0.408,3.413-1.15
		c1.394-1.087,2.18-2.86,2.097-4.62h8.469c0.229,0.996,1.119,1.744,2.184,1.744s1.954-0.747,2.183-1.744h8.469
		c-0.083,1.759,0.703,3.533,2.097,4.62c0.951,0.741,2.163,1.149,3.413,1.149c0.709,0,1.39-0.13,2.025-0.386
		c0.231-0.093,0.358-0.342,0.298-0.584c-0.524-2.112-1.887-3.821-3.667-4.799h16.499c-0.083,1.759,0.703,3.533,2.097,4.62
		c0.951,0.741,2.163,1.149,3.414,1.149c0.708,0,1.39-0.13,2.025-0.386c0.231-0.093,0.358-0.342,0.298-0.584
		c-0.525-2.112-1.887-3.821-3.668-4.799h4.712c0.002,0,0.005,0,0.007,0c0.001,0,0.003,0,0.004,0h22.505
		c0.073,0.025,0.151,0.039,0.233,0.026c0.961-0.139,2.008,0.286,2.599,1.062c0.59,0.775,0.724,1.896,0.332,2.789
		c-0.304,0.692-0.896,1.203-1.547,1.333c-0.672,0.133-1.392-0.177-1.68-0.724c-0.142-0.269-0.164-0.621-0.059-0.939
		c0.094-0.284,0.271-0.501,0.501-0.61c0.249-0.12,0.354-0.418,0.234-0.667c-0.12-0.249-0.418-0.355-0.667-0.234
		c-0.476,0.229-0.837,0.654-1.016,1.198c-0.192,0.581-0.146,1.207,0.124,1.72c0.419,0.794,1.313,1.288,2.248,1.288
		c0.171,0,0.344-0.017,0.515-0.051c0.965-0.194,1.833-0.927,2.266-1.913c0.542-1.234,0.364-2.724-0.452-3.795
		c-0.135-0.177-0.29-0.335-0.453-0.483h8.633c0.002,0,0.005,0,0.007,0c0.001,0,0.003,0,0.004,0h5.697
		c-0.083,1.759,0.703,3.533,2.097,4.62c0.951,0.741,2.163,1.149,3.413,1.149c0.709,0,1.39-0.13,2.025-0.386
		c0.231-0.093,0.358-0.342,0.298-0.584c-0.524-2.112-1.887-3.821-3.667-4.799h5.679c0.74,1.719,2.491,2.845,4.636,2.945
		c0.124,0.006,0.249,0.009,0.373,0.009c1.859,0,3.672-0.643,5.271-1.21c0.885-0.314,1.71-0.58,2.536-0.847
		c0.829-0.268,1.659-0.536,2.548-0.851c0.234-0.083,0.372-0.325,0.324-0.568c-0.049-0.244-0.281-0.415-0.516-0.402
		c-1.665,0.091-3.277-0.555-5.08-1.336c-1.699-0.736-3.455-1.498-5.354-1.498l-0.131,0.001c-1.784,0.034-3.793,0.994-4.522,2.757
		h-9.413c-0.048-0.006-0.095-0.008-0.143,0h-3.527c0.167-0.15,0.332-0.303,0.469-0.483c0.816-1.072,0.994-2.562,0.452-3.795
		c-0.433-0.986-1.301-1.719-2.267-1.913c-1.105-0.222-2.266,0.299-2.762,1.237c-0.27,0.512-0.315,1.138-0.125,1.719
		c0.18,0.545,0.541,0.97,1.017,1.2c0.249,0.12,0.548,0.015,0.667-0.234c0.12-0.249,0.015-0.547-0.234-0.668
		c-0.23-0.11-0.407-0.328-0.501-0.611c-0.105-0.319-0.083-0.67,0.059-0.939c0.289-0.547,1.013-0.857,1.68-0.724
		c0.651,0.131,1.245,0.642,1.548,1.334c0.392,0.892,0.258,2.013-0.332,2.788c-0.591,0.774-1.636,1.197-2.6,1.062
		c-0.083-0.014-0.162,0.001-0.236,0.026h-10.608c-0.001,0-0.002,0-0.004,0h-7.969c2.747-1.043,5.259-3.485,5.513-6.499
		c0.012-0.135-0.032-0.268-0.121-0.37c-0.088-0.101-0.214-0.163-0.35-0.171c-1.948-0.118-3.915,0.596-5.346,1.898
		c-1.32,1.202-2.154,2.87-2.346,4.638c-0.135,0.138-0.169,0.332-0.113,0.504h-9.819c0.166-0.15,0.332-0.303,0.469-0.483
		c0.816-1.072,0.994-2.563,0.453-3.796c-0.433-0.986-1.302-1.719-2.267-1.913c-1.105-0.219-2.267,0.298-2.762,1.237
		c-0.27,0.512-0.315,1.139-0.124,1.719c0.18,0.545,0.541,0.97,1.017,1.2c0.25,0.12,0.547,0.016,0.668-0.234
		c0.12-0.249,0.015-0.547-0.234-0.668c-0.229-0.11-0.407-0.327-0.501-0.611c-0.105-0.319-0.083-0.67,0.059-0.939
		c0.289-0.547,1.01-0.857,1.68-0.724c0.651,0.131,1.244,0.642,1.548,1.334c0.392,0.892,0.258,2.012-0.332,2.788
		c-0.59,0.774-1.636,1.197-2.599,1.062c-0.084-0.014-0.163,0.001-0.236,0.026h-7.754c-0.048-0.006-0.095-0.008-0.143,0h-9.762
		c2.747-1.043,5.26-3.485,5.513-6.499c0.012-0.135-0.032-0.268-0.121-0.37c-0.088-0.101-0.214-0.163-0.35-0.171
		c-1.933-0.116-3.915,0.596-5.346,1.898c-1.32,1.201-2.154,2.87-2.347,4.638c-0.134,0.138-0.169,0.332-0.113,0.503h-7.998
		c-0.048-0.006-0.095-0.008-0.143,0h-8.844c-0.229-0.997-1.118-1.744-2.183-1.744s-1.955,0.747-2.184,1.744h-8.844
		c-0.048-0.008-0.095-0.006-0.143,0h-7.998c0.056-0.172,0.022-0.367-0.114-0.505c-0.193-1.767-1.026-3.436-2.346-4.637
		c-1.43-1.302-3.41-2.015-5.346-1.898c-0.135,0.007-0.261,0.069-0.35,0.171c-0.088,0.102-0.132,0.235-0.121,0.37
		c0.254,3.014,2.766,5.456,5.513,6.499h-9.762c-0.048-0.008-0.095-0.006-0.143,0h-7.756c-0.074-0.026-0.151-0.04-0.234-0.026
		c-0.963,0.14-2.009-0.287-2.599-1.062c-0.591-0.776-0.724-1.896-0.332-2.788c0.304-0.692,0.897-1.204,1.548-1.334
		c0.671-0.133,1.392,0.176,1.68,0.724c0.142,0.269,0.164,0.62,0.059,0.939c-0.094,0.284-0.271,0.501-0.5,0.611
		c-0.249,0.12-0.354,0.419-0.234,0.668c0.121,0.249,0.42,0.354,0.668,0.234c0.476-0.229,0.837-0.655,1.017-1.2
		c0.191-0.58,0.146-1.206-0.124-1.719c-0.496-0.939-1.661-1.46-2.762-1.237c-0.965,0.194-1.833,0.927-2.267,1.913
		c-0.542,1.233-0.364,2.724,0.453,3.796c0.137,0.18,0.303,0.332,0.469,0.483h-9.819c0.056-0.172,0.022-0.368-0.114-0.506
		c-0.193-1.767-1.025-3.435-2.345-4.636c-1.431-1.302-3.403-2.015-5.346-1.898c-0.135,0.007-0.261,0.069-0.35,0.171
		c-0.088,0.102-0.132,0.235-0.121,0.37c0.254,3.014,2.766,5.456,5.513,6.499h-7.965c-0.003,0-0.006,0-0.009,0H65.216
		c-0.073-0.026-0.151-0.04-0.233-0.026c-0.967,0.135-2.01-0.288-2.6-1.062c-0.59-0.775-0.724-1.896-0.332-2.789
		c0.303-0.692,0.896-1.203,1.548-1.334c0.667-0.133,1.391,0.176,1.68,0.724c0.142,0.269,0.165,0.62,0.059,0.939
		c-0.093,0.284-0.271,0.501-0.501,0.611c-0.249,0.12-0.354,0.418-0.234,0.668c0.12,0.249,0.421,0.354,0.668,0.234
		c0.477-0.229,0.837-0.655,1.017-1.2c0.191-0.58,0.146-1.207-0.124-1.719c-0.495-0.938-1.656-1.459-2.762-1.237
		c-0.965,0.194-1.834,0.927-2.267,1.913c-0.542,1.234-0.364,2.724,0.452,3.796c0.137,0.18,0.303,0.332,0.469,0.483H58.53
		c-0.048-0.008-0.095-0.006-0.143,0h-9.413c-0.729-1.763-2.738-2.723-4.522-2.757l-0.131-0.001c-1.899,0-3.655,0.761-5.359,1.5
		c-1.796,0.779-3.402,1.425-5.074,1.334c-0.23-0.013-0.467,0.159-0.516,0.402C33.323,94.976,33.461,95.218,33.695,95.301z
		 M226.1,99.855c-1.34,0.383-2.929,0.085-4.026-0.77c-0.993-0.775-1.615-1.976-1.714-3.224l3.069,2.621
		c0.094,0.08,0.21,0.12,0.325,0.12c0.141,0,0.281-0.06,0.38-0.175c0.179-0.21,0.154-0.525-0.056-0.705l-2.544-2.173
		C223.654,96.076,225.401,97.68,226.1,99.855z M233.833,92.498l0.112-0.001c1.691,0,3.351,0.719,4.962,1.418
		c1.102,0.478,2.142,0.905,3.186,1.164c-0.126,0.041-0.252,0.082-0.378,0.122c-0.834,0.269-1.668,0.539-2.563,0.856
		c-1.622,0.575-3.461,1.232-5.264,1.145c-1.581-0.074-2.892-0.806-3.567-1.946h3.774c0.276,0,0.5-0.224,0.5-0.5
		c0-0.276-0.224-0.5-0.5-0.5h-3.693C231.094,93.14,232.565,92.522,233.833,92.498z M105.103,99.085
		c-1.096,0.855-2.684,1.152-4.026,0.77c0.699-2.175,2.446-3.779,4.566-4.306l-2.544,2.173c-0.21,0.18-0.235,0.495-0.056,0.705
		c0.099,0.116,0.239,0.175,0.38,0.175c0.115,0,0.23-0.039,0.325-0.12l3.069-2.621C106.717,97.11,106.096,98.311,105.103,99.085z
		 M125.768,99.085c-1.096,0.856-2.684,1.153-4.026,0.77c0.699-2.175,2.446-3.779,4.566-4.306l-2.544,2.173
		c-0.21,0.18-0.235,0.495-0.056,0.705c0.099,0.116,0.239,0.175,0.38,0.175c0.115,0,0.23-0.039,0.325-0.12l3.069-2.621
		C127.383,97.11,126.761,98.311,125.768,99.085z M156.524,99.855c-1.341,0.383-2.93,0.085-4.026-0.77
		c-0.993-0.775-1.615-1.976-1.714-3.224l3.069,2.621c0.094,0.08,0.21,0.12,0.325,0.12c0.141,0,0.281-0.06,0.38-0.175
		c0.179-0.21,0.154-0.525-0.056-0.705l-2.544-2.173C154.078,96.076,155.825,97.68,156.524,99.855z M177.19,99.855
		c-1.343,0.382-2.931,0.084-4.026-0.77c-0.993-0.775-1.615-1.976-1.714-3.224l3.069,2.621c0.094,0.08,0.209,0.12,0.325,0.12
		c0.141,0,0.281-0.06,0.38-0.175c0.179-0.21,0.154-0.525-0.056-0.705l-2.544-2.173C174.743,96.076,176.491,97.681,177.19,99.855z
		 M194.836,89.852c1.102-1.002,2.576-1.596,4.073-1.645c-0.499,2.607-2.959,4.632-5.466,5.325l3.273-3.292
		c0.195-0.196,0.194-0.513-0.002-0.707c-0.196-0.195-0.512-0.193-0.707,0.002l-2.84,2.857
		C193.52,91.427,194.085,90.536,194.836,89.852z M161.434,89.852c1.102-1.002,2.576-1.596,4.073-1.645
		c-0.499,2.607-2.959,4.631-5.466,5.325l3.273-3.292c0.195-0.196,0.194-0.512-0.002-0.707c-0.195-0.195-0.512-0.193-0.707,0.002
		l-2.841,2.857C160.118,91.427,160.683,90.536,161.434,89.852z M139.133,93.51c0.686,0,1.244,0.558,1.244,1.244
		c0,0.686-0.558,1.244-1.244,1.244c-0.686,0-1.244-0.558-1.244-1.244C137.889,94.068,138.447,93.51,139.133,93.51z M112.759,88.207
		c1.498,0.049,2.972,0.643,4.073,1.645c0.751,0.684,1.316,1.575,1.669,2.54l-2.841-2.857c-0.195-0.196-0.511-0.198-0.707-0.002
		c-0.196,0.195-0.197,0.511-0.002,0.707l3.273,3.292C115.718,92.838,113.258,90.814,112.759,88.207z M79.357,88.207
		c1.497,0.049,2.972,0.643,4.073,1.645c0.751,0.684,1.316,1.575,1.669,2.539l-2.84-2.857c-0.195-0.196-0.511-0.198-0.707-0.002
		c-0.196,0.194-0.197,0.511-0.002,0.707l3.273,3.292C82.316,92.839,79.856,90.814,79.357,88.207z M56.192,99.085
		c-1.096,0.856-2.683,1.153-4.026,0.77c0.699-2.175,2.446-3.779,4.566-4.306l-2.544,2.173c-0.21,0.18-0.235,0.495-0.056,0.705
		c0.099,0.116,0.239,0.175,0.38,0.175c0.115,0,0.23-0.039,0.325-0.12l3.069-2.621C57.807,97.11,57.186,98.311,56.192,99.085z
		 M39.364,93.912c1.605-0.696,3.265-1.415,4.957-1.415l0.112,0.001c1.269,0.024,2.74,0.643,3.43,1.757H44.17
		c-0.276,0-0.5,0.224-0.5,0.5c0,0.276,0.224,0.5,0.5,0.5h3.774c-0.676,1.14-1.987,1.872-3.567,1.946
		c-1.797,0.086-3.642-0.569-5.264-1.145c-0.895-0.317-1.729-0.587-2.563-0.856c-0.126-0.041-0.252-0.082-0.378-0.122
		C37.217,94.819,38.258,94.391,39.364,93.912z"/>
</svg>